<?xml version="1.0" encoding="utf-8"?>
<!-- Generator: Adobe Illustrator 22.0.1, SVG Export Plug-In . SVG Version: 6.00 Build 0)  -->
<svg version="1.1" id="Layer_1" xmlns="http://www.w3.org/2000/svg" xmlns:xlink="http://www.w3.org/1999/xlink" x="0px" y="0px"
	 viewBox="0 0 17 19" style="enable-background:new 0 0 17 19;" xml:space="preserve">
<style type="text/css">
	.st0{fill:#B6CCCC;}
</style>
<title>attachment-delete</title>
<desc>Created with Sketch.</desc>
<g>
	<path class="st0" d="M16.5,2H12V1.5C12,0.7,11.3,0,10.5,0h-4C5.7,0,5,0.7,5,1.5V2H0.5C0.2,2,0,2.2,0,2.5S0.2,3,0.5,3H2v13.5
		C2,17.9,3.1,19,4.5,19h8c1.4,0,2.5-1.1,2.5-2.5V3h1.5C16.8,3,17,2.8,17,2.5S16.8,2,16.5,2z M6,1.5C6,1.2,6.2,1,6.5,1h4
		C10.8,1,11,1.2,11,1.5V2H6V1.5z M14,16.5c0,0.8-0.7,1.5-1.5,1.5h-8C3.7,18,3,17.3,3,16.5V3h11V16.5z"/>
	<path class="st0" d="M11,6.5v8c0,0.3,0.2,0.5,0.5,0.5s0.5-0.2,0.5-0.5v-8C12,6.2,11.8,6,11.5,6S11,6.2,11,6.5z"/>
	<path class="st0" d="M8.5,6C8.2,6,8,6.2,8,6.5v8C8,14.8,8.2,15,8.5,15S9,14.8,9,14.5v-8C9,6.2,8.8,6,8.5,6z"/>
	<path class="st0" d="M5.5,6C5.2,6,5,6.2,5,6.5v8C5,14.8,5.2,15,5.5,15S6,14.8,6,14.5v-8C6,6.2,5.8,6,5.5,6z"/>
</g>
</svg>
