<?xml version="1.0" encoding="utf-8"?>
<!-- Generator: Adobe Illustrator 22.0.1, SVG Export Plug-In . SVG Version: 6.00 Build 0)  -->
<svg version="1.1" id="Layer_1" xmlns="http://www.w3.org/2000/svg" xmlns:xlink="http://www.w3.org/1999/xlink" x="0px" y="0px"
	 viewBox="0 0 23.9 14" style="enable-background:new 0 0 23.9 14;" xml:space="preserve">
<style type="text/css">
	.st0{fill:none;}
	.st1{fill:#0D2C54;}
</style>
<title>eye blue copy</title>
<desc>Created with Sketch.</desc>
<g>
	<path class="st0" d="M11.9,1C7.7,1,4.1,2.9,1.1,6.8C1,6.9,1,7.1,1.1,7.2C4.1,11.1,7.7,13,11.9,13c4.2,0,7.8-1.9,10.9-5.8
		c0.1-0.1,0.1-0.3,0-0.4C19.7,2.9,16.2,1,11.9,1z"/>
	<path class="st1" d="M23.6,6.2C20.4,2.1,16.4,0,11.9,0C7.4,0,3.5,2.1,0.3,6.2c-0.4,0.5-0.4,1.1,0,1.6C3.5,11.9,7.4,14,11.9,14
		c4.5,0,8.4-2.1,11.6-6.2C23.9,7.3,23.9,6.7,23.6,6.2z M22.8,7.2c-3.1,3.9-6.6,5.8-10.9,5.8c-4.2,0-7.8-1.9-10.9-5.8
		C1,7.1,1,6.9,1.1,6.8C4.1,2.9,7.7,1,11.9,1s7.8,1.9,10.9,5.8C22.9,6.9,22.9,7.1,22.8,7.2z"/>
	<path class="st1" d="M12,4c0-0.1,0-0.3,0-0.4c0,0-0.1,0-0.1,0c-2,0-3.5,1.5-3.5,3.4s1.6,3.4,3.5,3.4s3.5-1.5,3.5-3.4
		c0-0.1,0-0.1,0-0.2c-0.2,0-0.3,0-0.5,0C13.3,6.8,12,5.6,12,4z"/>
</g>
</svg>
