<?xml version="1.0" encoding="utf-8"?>
<!-- Generator: Adobe Illustrator 22.0.1, SVG Export Plug-In . SVG Version: 6.00 Build 0)  -->
<svg version="1.1" id="Layer_1" xmlns="http://www.w3.org/2000/svg" xmlns:xlink="http://www.w3.org/1999/xlink" x="0px" y="0px"
	 viewBox="0 0 56 56" style="enable-background:new 0 0 56 56;" xml:space="preserve">
<style type="text/css">
	.st0{fill:#FFFFFF;}
	.st1{fill:#E2EBEB;enable-background:new    ;}
</style>
<title>file</title>
<desc>Created with Sketch.</desc>
<g id="attachments_1_" transform="translate(-457.000000, -270.000000)">
	<g id="card-detail-description-v2-copy-2" transform="translate(40.000000, 40.000000)">
		<g id="attachments" transform="translate(40.000000, 40.000000)">
			<g id="attachment-copy-2" transform="translate(367.000000, 180.000000)">
				<g id="icon-white" transform="translate(10.000000, 10.000000)">
					<g id="file">
						<path id="Mask" class="st0" d="M3.8,0H42l14,14v38.2c0,1.3-0.1,1.8-0.4,2.3c-0.3,0.5-0.6,0.9-1.1,1.1c-0.5,0.3-1,0.4-2.3,0.4
							H3.8c-1.3,0-1.8-0.1-2.3-0.4S0.7,55,0.4,54.5C0.1,54,0,53.5,0,52.2V3.8C0,2.5,0.1,2,0.4,1.5S1,0.7,1.5,0.4S2.5,0,3.8,0z"/>
						<polyline id="Stroke-3" class="st1" points="42,0 42,14 56,14 						"/>
					</g>
				</g>
			</g>
		</g>
	</g>
</g>
</svg>
