<?xml version="1.0" encoding="utf-8"?>
<!-- Generator: Adobe Illustrator 22.0.1, SVG Export Plug-In . SVG Version: 6.00 Build 0)  -->
<svg version="1.1" id="Layer_1" xmlns="http://www.w3.org/2000/svg" xmlns:xlink="http://www.w3.org/1999/xlink" x="0px" y="0px"
	 viewBox="0 0 3 15" style="enable-background:new 0 0 3 15;" xml:space="preserve">
<style type="text/css">
	.st0{fill:#85929F;}
</style>
<title>hamburger</title>
<desc>Created with Sketch.</desc>
<g id="attachments_1_" transform="translate(-410.000000, -201.000000)">
	<g id="card-detail-description-v2-copy-2" transform="translate(40.000000, 40.000000)">
		<g id="attachments" transform="translate(40.000000, 40.000000)">
			<g id="attachment-copy-3" transform="translate(0.000000, 90.000000)">
				<path id="hamburger" class="st0" d="M331.5,46c-0.8,0-1.5-0.7-1.5-1.5s0.7-1.5,1.5-1.5s1.5,0.7,1.5,1.5S332.3,46,331.5,46z
					 M331.5,40c-0.8,0-1.5-0.7-1.5-1.5s0.7-1.5,1.5-1.5s1.5,0.7,1.5,1.5S332.3,40,331.5,40z M331.5,34c-0.8,0-1.5-0.7-1.5-1.5
					s0.7-1.5,1.5-1.5s1.5,0.7,1.5,1.5S332.3,34,331.5,34z"/>
			</g>
		</g>
	</g>
</g>
</svg>
