<svg xmlns="http://www.w3.org/2000/svg" viewBox="0 0 59 71.8" style="enable-background:new 0 0 59 71.8; fill-opacity:0.15"><path fill="#B6CCCC" d="M16.5 71c-3.4-.4-6.7-1-10-2.2-1.6-.6-3.2-1.4-4.5-2.6-1.3-1.3-2-2.8-2-4.6 0-1 0-2 .2-3C.4 57 1.2 56 2 55 3.6 53 6 51.4 8.2 50c3.4-2.2 7-4 10.7-5.2.6-.2 1-.6 1.5-1 1.5-2.2 2-4.5 1-7 0 0 0-.3-.2-.4-4-4.5-6.6-9.8-7.5-15.8-.6-4-.3-8 1.4-11.7C17.2 4.2 21 1.4 26 .4c5.2-1 10 0 14 3.4 2.8 2 4.5 5 5.2 8.5 1 4.6.5 9-1.2 13.5-1.4 3.7-3.4 7-6 10l-.5 1c-.5 1.7-.7 3.6 0 5.4l1 1.7c.2.4.6.7 1 .8 4.3 1.5 8.5 3.4 12.4 6 1.8 1 3.5 2.5 5 4.2 1.2 1.6 2 3.4 2 5.6-.2 1 0 2-.4 3-.4 1.7-1.6 2.8-3 3.8-2 1.3-4 2-6.3 2.6-3 .8-6 1.2-9 1.4l-11 .6c-4-.4-8.5-.5-12.8-1z"/></svg>